<svg xmlns="http://www.w3.org/2000/svg" width="20" height="20" shape-rendering="crispEdges" viewBox="0 0 20 20"><rect width="14" height="1" x="3" y="0" fill="#0063a3"/><rect width="2" height="1" x="1" y="1" fill="#0063a3"/><rect width="14" height="1" x="3" y="1" fill="#217cbb"/><rect width="2" height="1" x="17" y="1" fill="#0063a3"/><rect width="1" height="1" x="0" y="2" fill="#0063a3"/><rect width="18" height="1" x="1" y="2" fill="#217cbb"/><rect width="1" height="1" x="19" y="2" fill="#0063a3"/><rect width="3" height="1" x="0" y="3" fill="#0063a3"/><rect width="14" height="1" x="3" y="3" fill="#217cbb"/><rect width="3" height="1" x="17" y="3" fill="#0063a3"/><rect width="1" height="1" x="0" y="4" fill="#0063a3"/><rect width="1" height="1" x="1" y="4" fill="#dcedf9"/><rect width="1" height="1" x="2" y="4" fill="#fff"/><rect width="14" height="1" x="3" y="4" fill="#0063a3"/><rect width="2" height="1" x="17" y="4" fill="#fff"/><rect width="1" height="1" x="19" y="4" fill="#0063a3"/><rect width="1" height="1" x="0" y="5" fill="#0063a3"/><rect width="1" height="1" x="1" y="5" fill="#dcedf9"/><rect width="17" height="1" x="2" y="5" fill="#fff"/><rect width="1" height="1" x="19" y="5" fill="#0063a3"/><rect width="1" height="1" x="0" y="6" fill="#0063a3"/><rect width="1" height="1" x="1" y="6" fill="#dcedf9"/><rect width="1" height="1" x="2" y="6" fill="#fff"/><rect width="7" height="1" x="3" y="6" fill="#0e416c"/><rect width="3" height="1" x="10" y="6" fill="#fff"/><rect width="2" height="1" x="13" y="6" fill="#006638"/><rect width="4" height="1" x="15" y="6" fill="#fff"/><rect width="1" height="1" x="19" y="6" fill="#0063a3"/><rect width="1" height="1" x="0" y="7" fill="#0063a3"/><rect width="1" height="1" x="1" y="7" fill="#dcedf9"/><rect width="11" height="1" x="2" y="7" fill="#fff"/><rect width="2" height="1" x="13" y="7" fill="#006638"/><rect width="4" height="1" x="15" y="7" fill="#fff"/><rect width="1" height="1" x="19" y="7" fill="#0063a3"/><rect width="1" height="1" x="0" y="8" fill="#0063a3"/><rect width="1" height="1" x="1" y="8" fill="#dcedf9"/><rect width="17" height="1" x="2" y="8" fill="#fff"/><rect width="1" height="1" x="19" y="8" fill="#0063a3"/><rect width="20" height="1" x="0" y="9" fill="#0063a3"/><rect width="1" height="1" x="0" y="10" fill="#0063a3"/><rect width="1" height="1" x="1" y="10" fill="#dcedf9"/><rect width="17" height="1" x="2" y="10" fill="#fff"/><rect width="1" height="1" x="19" y="10" fill="#0063a3"/><rect width="1" height="1" x="0" y="11" fill="#0063a3"/><rect width="1" height="1" x="1" y="11" fill="#dcedf9"/><rect width="1" height="1" x="2" y="11" fill="#fff"/><rect width="7" height="1" x="3" y="11" fill="#0e416c"/><rect width="3" height="1" x="10" y="11" fill="#fff"/><rect width="2" height="1" x="13" y="11" fill="#e49325"/><rect width="4" height="1" x="15" y="11" fill="#fff"/><rect width="1" height="1" x="19" y="11" fill="#0063a3"/><rect width="1" height="1" x="0" y="12" fill="#0063a3"/><rect width="1" height="1" x="1" y="12" fill="#dcedf9"/><rect width="11" height="1" x="2" y="12" fill="#fff"/><rect width="2" height="1" x="13" y="12" fill="#e49325"/><rect width="4" height="1" x="15" y="12" fill="#fff"/><rect width="1" height="1" x="19" y="12" fill="#0063a3"/><rect width="1" height="1" x="0" y="13" fill="#0063a3"/><rect width="1" height="1" x="1" y="13" fill="#dcedf9"/><rect width="17" height="1" x="2" y="13" fill="#fff"/><rect width="1" height="1" x="19" y="13" fill="#0063a3"/><rect width="20" height="1" x="0" y="14" fill="#0063a3"/><rect width="1" height="1" x="0" y="15" fill="#0063a3"/><rect width="1" height="1" x="1" y="15" fill="#dcedf9"/><rect width="17" height="1" x="2" y="15" fill="#fff"/><rect width="1" height="1" x="19" y="15" fill="#0063a3"/><rect width="1" height="1" x="0" y="16" fill="#0063a3"/><rect width="1" height="1" x="1" y="16" fill="#dcedf9"/><rect width="1" height="1" x="2" y="16" fill="#fff"/><rect width="7" height="1" x="3" y="16" fill="#0e416c"/><rect width="3" height="1" x="10" y="16" fill="#fff"/><rect width="2" height="1" x="13" y="16" fill="#da212c"/><rect width="4" height="1" x="15" y="16" fill="#fff"/><rect width="1" height="1" x="19" y="16" fill="#0063a3"/><rect width="1" height="1" x="0" y="17" fill="#0063a3"/><rect width="1" height="1" x="1" y="17" fill="#dcedf9"/><rect width="11" height="1" x="2" y="17" fill="#fff"/><rect width="2" height="1" x="13" y="17" fill="#da212c"/><rect width="4" height="1" x="15" y="17" fill="#fff"/><rect width="1" height="1" x="19" y="17" fill="#0063a3"/><rect width="2" height="1" x="1" y="18" fill="#0063a3"/><rect width="14" height="1" x="3" y="18" fill="#fff"/><rect width="2" height="1" x="17" y="18" fill="#0063a3"/><rect width="14" height="1" x="3" y="19" fill="#0063a3"/></svg>