<svg xmlns="http://www.w3.org/2000/svg" width="16" height="16" viewBox="0 0 16 16" shape-rendering="crispEdges">
  <!-- Hand-drawn 16x16 pixel version of DBADash.svg; transparent background -->
  <rect x="2" y="0" width="12" height="1" fill="#0063a3"/>
  <rect x="1" y="1" width="1" height="1" fill="#0063a3"/>
  <rect x="2" y="1" width="12" height="1" fill="#217cbb"/>
  <rect x="14" y="1" width="1" height="1" fill="#0063a3"/>
  <rect x="0" y="2" width="2" height="1" fill="#0063a3"/>
  <rect x="2" y="2" width="12" height="1" fill="#217cbb"/>
  <rect x="14" y="2" width="2" height="1" fill="#0063a3"/>
  <rect x="0" y="3" width="1" height="1" fill="#0063a3"/>
  <rect x="1" y="3" width="1" height="1" fill="#dcedf9"/>
  <rect x="2" y="3" width="12" height="1" fill="#0063a3"/>
  <rect x="14" y="3" width="1" height="1" fill="#ffffff"/>
  <rect x="15" y="3" width="1" height="1" fill="#0063a3"/>
  <rect x="0" y="4" width="1" height="1" fill="#0063a3"/>
  <rect x="1" y="4" width="1" height="1" fill="#dcedf9"/>
  <rect x="2" y="4" width="8" height="1" fill="#ffffff"/>
  <rect x="10" y="4" width="2" height="1" fill="#006638"/>
  <rect x="12" y="4" width="3" height="1" fill="#ffffff"/>
  <rect x="15" y="4" width="1" height="1" fill="#0063a3"/>
  <rect x="0" y="5" width="1" height="1" fill="#0063a3"/>
  <rect x="1" y="5" width="1" height="1" fill="#dcedf9"/>
  <rect x="2" y="5" width="1" height="1" fill="#ffffff"/>
  <rect x="3" y="5" width="5" height="1" fill="#0e416c"/>
  <rect x="8" y="5" width="2" height="1" fill="#ffffff"/>
  <rect x="10" y="5" width="2" height="1" fill="#006638"/>
  <rect x="12" y="5" width="3" height="1" fill="#ffffff"/>
  <rect x="15" y="5" width="1" height="1" fill="#0063a3"/>
  <rect x="0" y="6" width="1" height="1" fill="#0063a3"/>
  <rect x="1" y="6" width="1" height="1" fill="#dcedf9"/>
  <rect x="2" y="6" width="13" height="1" fill="#ffffff"/>
  <rect x="15" y="6" width="1" height="1" fill="#0063a3"/>
  <rect x="0" y="7" width="16" height="1" fill="#0063a3"/>
  <rect x="0" y="8" width="1" height="1" fill="#0063a3"/>
  <rect x="1" y="8" width="1" height="1" fill="#dcedf9"/>
  <rect x="2" y="8" width="8" height="1" fill="#ffffff"/>
  <rect x="10" y="8" width="2" height="1" fill="#e49325"/>
  <rect x="12" y="8" width="3" height="1" fill="#ffffff"/>
  <rect x="15" y="8" width="1" height="1" fill="#0063a3"/>
  <rect x="0" y="9" width="1" height="1" fill="#0063a3"/>
  <rect x="1" y="9" width="1" height="1" fill="#dcedf9"/>
  <rect x="2" y="9" width="1" height="1" fill="#ffffff"/>
  <rect x="3" y="9" width="5" height="1" fill="#0e416c"/>
  <rect x="8" y="9" width="2" height="1" fill="#ffffff"/>
  <rect x="10" y="9" width="2" height="1" fill="#e49325"/>
  <rect x="12" y="9" width="3" height="1" fill="#ffffff"/>
  <rect x="15" y="9" width="1" height="1" fill="#0063a3"/>
  <rect x="0" y="10" width="1" height="1" fill="#0063a3"/>
  <rect x="1" y="10" width="1" height="1" fill="#dcedf9"/>
  <rect x="2" y="10" width="13" height="1" fill="#ffffff"/>
  <rect x="15" y="10" width="1" height="1" fill="#0063a3"/>
  <rect x="0" y="11" width="16" height="1" fill="#0063a3"/>
  <rect x="0" y="12" width="1" height="1" fill="#0063a3"/>
  <rect x="1" y="12" width="1" height="1" fill="#dcedf9"/>
  <rect x="2" y="12" width="8" height="1" fill="#ffffff"/>
  <rect x="10" y="12" width="2" height="1" fill="#da212c"/>
  <rect x="12" y="12" width="3" height="1" fill="#ffffff"/>
  <rect x="15" y="12" width="1" height="1" fill="#0063a3"/>
  <rect x="0" y="13" width="1" height="1" fill="#0063a3"/>
  <rect x="1" y="13" width="1" height="1" fill="#dcedf9"/>
  <rect x="2" y="13" width="1" height="1" fill="#ffffff"/>
  <rect x="3" y="13" width="5" height="1" fill="#0e416c"/>
  <rect x="8" y="13" width="2" height="1" fill="#ffffff"/>
  <rect x="10" y="13" width="2" height="1" fill="#da212c"/>
  <rect x="12" y="13" width="3" height="1" fill="#ffffff"/>
  <rect x="15" y="13" width="1" height="1" fill="#0063a3"/>
  <rect x="1" y="14" width="1" height="1" fill="#0063a3"/>
  <rect x="2" y="14" width="12" height="1" fill="#ffffff"/>
  <rect x="14" y="14" width="1" height="1" fill="#0063a3"/>
  <rect x="2" y="15" width="12" height="1" fill="#0063a3"/>
</svg>
