<svg xmlns="http://www.w3.org/2000/svg" width="64" height="64" viewBox="0 0 64 64"><defs><style>.canvas{fill:none;opacity:0}.trimble-blue{fill:#0063a3}.trimble-blue-light{fill:#217cbb}.white{fill:#fff}.white-stroke{fill:none;stroke:#fff;stroke-width:2}.trimble-grey-stroke{fill:none;stroke:#5b6670;stroke-width:5}.trimble-grey{fill:#5b6670}</style></defs><title>PlanCompare</title><g id="canvas" class="canvas"><path d="M64,64H0V0H64Z" class="canvas"/></g><g id="level-1"><path d="M36,10H52" class="trimble-grey-stroke"/><path d="M50,1L62,10L50,19Z" class="trimble-grey"/><path d="M12,54H28" class="trimble-grey-stroke"/><path d="M14,45L2,54L14,63Z" class="trimble-grey"/><rect width="28" height="38" x="2" y="2" class="trimble-blue" rx="4"/><path d="M13,21H17M17,11.5V30.5M17,11.5H21M17,30.5H21" class="white-stroke"/><rect width="7" height="7" x="6" y="17.5" class="white" rx="1"/><rect width="7" height="7" x="21" y="8" class="white" rx="1"/><rect width="7" height="7" x="21" y="27" class="white" rx="1"/><rect width="28" height="38" x="34" y="24" class="trimble-blue-light" rx="4"/><path d="M45,43H53" class="white-stroke"/><rect width="7" height="7" x="38" y="39.5" class="white" rx="1"/><rect width="7" height="7" x="53" y="39.5" class="white" rx="1"/></g></svg>